<?xml version="1.0" standalone="no"?>
<!DOCTYPE svg PUBLIC "-//W3C//DTD SVG 20010904//EN"
 "http://www.w3.org/TR/2001/REC-SVG-20010904/DTD/svg10.dtd">
<svg version="1.0" xmlns="http://www.w3.org/2000/svg"
 width="260.000000pt" height="260.000000pt" viewBox="0 0 260.000000 260.000000"
 preserveAspectRatio="xMidYMid meet">
<metadata>
Created by potrace 1.11, written by Peter Selinger 2001-2013
</metadata>
<g transform="translate(0.000000,260.000000) scale(0.100000,-0.100000)"
fill="#000000" stroke="none">
<path d="M1665 1978 c-22 -4 -51 -10 -65 -12 -90 -15 -240 -104 -279 -164
l-24 -37 -21 30 c-59 82 -149 145 -231 159 -16 3 -41 8 -55 11 -35 7 -729 9
-737 2 -3 -3 -6 -304 -6 -669 l0 -663 399 -3 c347 -2 405 0 449 14 68 23 128
59 175 105 22 22 43 39 49 39 5 0 23 -13 41 -30 55 -52 162 -96 285 -117 76
-13 320 -3 349 15 5 3 19 6 32 8 30 3 144 55 144 65 0 5 6 9 14 9 31 0 128
129 141 188 2 9 8 31 12 47 15 51 8 166 -12 224 -22 59 -114 163 -157 176 -13
4 -30 13 -38 19 -21 17 -206 76 -255 82 -17 1 -97 23 -153 42 -30 9 -67 29
-84 44 -27 23 -30 31 -24 62 10 51 60 79 140 79 94 1 152 -20 175 -61 8 -13
36 -16 186 -16 97 -1 179 2 181 6 7 11 -17 98 -28 98 -5 0 -7 4 -4 9 3 5 -3
20 -14 34 -11 14 -20 30 -20 37 0 6 -4 8 -10 5 -5 -3 -10 -1 -10 4 0 14 -37
51 -50 51 -5 0 -10 4 -10 9 0 10 -118 69 -153 78 -87 20 -123 25 -202 27 -49
1 -108 -2 -130 -6z m-728 -334 c34 -17 45 -44 37 -90 -11 -60 -46 -71 -224
-70 l-145 1 -1 75 c-1 41 1 80 3 86 7 18 291 16 330 -2z m357 -230 c9 -3 16
-12 16 -19 0 -23 125 -119 170 -130 3 -1 19 -7 35 -14 33 -14 141 -50 165 -56
175 -39 277 -80 301 -122 13 -25 14 -34 2 -69 -20 -59 -82 -87 -193 -87 -59 1
-124 12 -128 24 -2 5 -9 9 -16 9 -14 0 -50 46 -60 78 -8 25 -4 24 -106 26 -41
1 -80 4 -85 8 -6 4 -12 23 -13 44 -2 20 -7 45 -13 55 -5 11 -7 19 -4 19 4 0
-3 13 -14 29 -12 16 -21 32 -21 36 0 10 -83 91 -99 96 -12 4 -9 14 13 42 16
20 30 37 31 37 2 0 10 -3 19 -6z m-330 -264 c43 -22 68 -76 56 -121 -11 -38
-40 -71 -68 -76 -16 -3 -235 -6 -313 -4 l-36 1 2 103 c1 56 3 106 4 111 2 15
322 2 355 -14z"/>
</g>
</svg>
